PathFileType	4	(X/Y/Z)	Patient4_TMGait_0pt6_01_left_05.trc.trc
DataRate	CameraRate	NumFrames	NumMarkers	Units	OrigDataRate	OrigDataStartFrame	OrigNumFrames
80.924855491329	80.924855491329	4	33	mm	80.924855491329	1	       141
Frame#	Time	Sacral			L.Shoulder			Chest			R.Shoulder			Neck			R.ASIS			L.ASIS			R.Thigh.Superior			R.Thigh.Lateral			R.Thigh.Inferior			R.Patella			L.Thigh.Superior			L.Thigh.Lateral			L.Thigh.Inferior			L.Patella			L.Shank.Superior			L.Shank.Lateral			L.Shank.Inferior			R.Shank.Superior			R.Shank.Lateral			R.Shank.Inferior			R.Heel			R.Midfoot.Superior			R.Midfoot.Lateral			R.Toe			L.Heel			L.Midfoot.Lateral			L.Midfoot.Superior			L.Toe			L.Elbow			L.Wrist			R.Elbow			R.Wrist			
		X1	Y1	Z1	X2	Y2	Z2	X3	Y3	Z3	X4	Y4	Z4	X5	Y5	Z5	X6	Y6	Z6	X7	Y7	Z7	X8	Y8	Z8	X9	Y9	Z9	X10	Y10	Z10	X11	Y11	Z11	X12	Y12	Z12	X13	Y13	Z13	X14	Y14	Z14	X15	Y15	Z15	X16	Y16	Z16	X17	Y17	Z17	X18	Y18	Z18	X19	Y19	Z19	X20	Y20	Z20	X21	Y21	Z21	X22	Y22	Z22	X23	Y23	Z23	X24	Y24	Z24	X25	Y25	Z25	X26	Y26	Z26	X27	Y27	Z27	X28	Y28	Z28	X29	Y29	Z29	X30	Y30	Z30	X31	Y31	Z31	X32	Y32	Z32	X33	Y33	Z33	

1	6.050000000000	629.052602410784	1007.771698086483	522.271988357131	773.730541426563	1451.773170786048	364.029118439184	893.211741860991	1375.541345813487	510.479493050958	822.528599740818	1431.679327367563	695.560688136444	771.629397437393	1500.102038014884	523.745032882545	861.855027355671	948.153092164098	628.406296354672	835.988044347280	973.713798113926	355.536252477197	886.825334785450	743.151381115947	596.204757985974	798.006854500018	636.339997315831	654.041350292047	871.959093035211	582.442861722399	575.364802743374	865.222053878404	496.238214908278	580.031115667965	919.668887498231	786.451539017912	369.726066502320	858.774576281398	656.744535470021	293.871731254600	966.332854925336	593.486438331335	340.992787436287	982.249788945624	511.980147973751	331.096076285390	936.427805008081	438.097107482860	331.234655275676	813.197570820371	348.804097047843	300.121441266039	855.880604772693	223.539310087844	351.667754940732	838.679245010622	407.497289926329	581.544697226802	763.718383888622	300.837989881144	632.941479230325	814.177200603589	209.388901919342	569.328183256612	684.912712437607	41.836898021191	524.397533713091	857.292966887223	98.632701178365	563.025205467536	768.041772908097	36.008806891253	599.441657243974	975.723399924515	47.073791816837	589.139584335375	710.586890284034	87.550432829523	413.594280778638	766.064443183547	73.587941336615	320.832133643581	861.321833622939	123.634340476592	327.655987325324	970.893586105156	55.718959861796	275.437635329616	721.922519865676	1102.419307907056	240.519729055677	873.224265978769	886.888980224220	248.718610583186	882.657009406446	1079.840986016671	791.593886358431	1106.522260382915	960.795038939258	736.261121369875	
2	6.062357142857	627.686055265060	1008.126704977821	523.649611386232	772.862055863275	1451.890430798635	365.416618505051	892.850837881672	1375.146002792864	511.107571293665	823.228581999207	1431.127234411656	696.585094928790	771.397881981741	1500.058051127452	525.109068829699	860.804550801362	947.713676590455	628.724408511891	833.880657214705	973.581684539129	355.905044088480	884.192047166345	742.344426693542	596.683227949670	794.303131467128	636.185671682002	654.507449520337	867.437153778491	581.678678140104	575.747381349891	859.873613562129	495.658297841451	580.215465810233	915.608720456915	785.510718853103	370.228120246110	856.553763405636	656.496800847874	294.793059250629	963.457697661177	593.549702987170	343.571127985143	981.242693960741	514.284040307799	333.529043499149	939.437607701219	440.217015983263	332.273025721635	822.831093964293	344.714545072711	298.877324006230	872.291986122781	222.215571901465	349.913264955635	832.794866157971	407.143655760716	581.712512785453	757.312719661671	300.853308360715	633.150315954426	807.089857265026	209.157556647143	569.355954674196	677.023984928627	41.960338775507	524.425894869477	849.544589630231	98.543317029665	563.021950028136	760.152972891741	35.979871912458	599.370598208113	967.886078599651	46.750707189823	589.119972144916	735.611314659747	78.516218471836	409.306109495313	792.515504449435	68.113862437408	317.161548567717	884.449907581907	122.880866417820	325.276380593014	997.539472746885	61.398390457550	274.142638888438	717.586037197374	1103.036079712609	242.366611046451	853.389830398326	879.778741775093	244.468610464491	887.169557833763	1080.361878811627	791.682100640781	1115.737010080367	978.702890159140	732.944987755167	
3	6.074714285714	626.345907826079	1008.492856862099	524.998275142907	772.024885470949	1452.006513453506	366.753182316119	892.507249426604	1374.762381337572	511.700732856859	823.922600098825	1430.599005263626	697.561864381460	771.183102875429	1500.006910674867	526.423189535247	859.763718070876	947.287484190033	629.030153879888	831.805895303329	973.447300089155	356.260847272857	881.562448537782	741.543079721052	597.179163761233	790.594044702926	636.043807394038	654.970652652443	862.922982507683	580.926647253129	576.138074708380	854.553241666868	495.093613263756	580.414810444118	911.621804976759	784.574227306995	370.775949683258	854.234475158942	656.218741241982	295.686247885301	960.525177075916	593.549530386030	346.028212203277	980.111582790091	516.505316019028	335.920215203774	942.284581689002	442.346275831262	333.314182522766	832.356541511880	340.779389912583	297.631133395243	888.474448318801	221.125803494859	348.240529413779	826.932861157527	406.804237181378	581.887390178608	750.942767118166	300.878173061025	633.366140070463	800.057490021252	208.942095837544	569.395386757916	669.211106207210	42.082954461655	524.457753586141	841.867815837450	98.458676846443	563.026628643077	752.342821778848	35.955941760860	599.311320300156	960.120904785466	46.437734081992	589.102419239191	760.336395257722	69.967579011402	405.075025691007	818.751217967106	62.998106126684	313.645877007734	907.353045560472	122.371030312244	323.069459517522	1023.897323789925	67.201473590688	273.256091817048	713.375255167186	1103.651500793955	244.140254854664	833.805058087918	873.016134371343	240.292919361112	891.586834471455	1080.890352838751	791.696647437122	1124.559296265180	996.536148902724	729.645420758859	
4	6.087071428571	625.049926825567	1008.876383221269	526.280526360133	771.252230260114	1452.115156636467	367.982791815476	892.197435096433	1374.394722020251	512.222369077393	824.601827074082	1430.116111153584	698.439180702429	770.998186551507	1499.939094635516	527.630940346053	858.732424094894	946.879787653038	629.306037645385	829.793693142550	973.304314720879	356.589017781634	878.930765209773	740.748903074384	597.693353873323	786.870662409190	635.920807289054	655.419020959593	858.418236690281	580.193583295518	576.532900133541	849.273821885975	494.549229025429	580.630420448722	907.784297810336	783.651895283851	371.395012097401	851.759670605160	655.885674345794	296.527807024265	957.516718964355	593.441012135280	348.266064583708	978.776517053280	518.576386945174	338.227663851125	944.836004795431	444.485766500940	334.359559709996	841.644713177373	337.144999760271	296.413114736406	904.175348571089	220.470258565550	346.736498678952	821.101836504291	406.485821276984	582.068107659649	744.621596160354	300.921073264913	633.590026801345	793.101452581276	208.752646516587	569.451009388363	661.503528688230	42.205942151355	524.495099881711	834.288050644383	98.381682030256	563.042963424717	744.641608943812	35.939407591944	599.269239738272	952.455030866463	46.141544501333	589.088875917474	784.422088469462	62.342272394171	401.016141840728	844.468993640528	58.559092116151	310.455010031013	929.740234190742	122.312180396435	321.189274388384	1049.600357081776	73.212253563038	273.077024651284	709.373133948172	1104.276703154449	245.750844283447	814.718326975589	866.928725237228	236.264303762415	895.832257260493	1081.438713310944	791.573888755635	1132.605875067944	1014.213685209842	726.371401998500	
